<?xml version="1.0" standalone="no"?>
<!DOCTYPE svg PUBLIC "-//W3C//DTD SVG 20010904//EN"
 "http://www.w3.org/TR/2001/REC-SVG-20010904/DTD/svg10.dtd">
<svg version="1.0" xmlns="http://www.w3.org/2000/svg"
 width="354.000000pt" height="354.000000pt" viewBox="0 0 354.000000 354.000000"
 preserveAspectRatio="xMidYMid meet">

<g transform="translate(0.000000,354.000000) scale(0.100000,-0.100000)"
fill="#000000" stroke="none">
<path d="M1692 3180 c-13 -6 -34 -12 -47 -14 -40 -7 -95 -38 -95 -52 0 -8 -3
-14 -7 -15 -5 0 -17 -2 -28 -5 -11 -2 -37 -5 -57 -5 -21 -1 -42 -7 -48 -15 -7
-7 -17 -11 -25 -8 -7 3 -21 -8 -31 -25 -10 -17 -22 -31 -27 -31 -4 0 -5 -5 -2
-10 4 -6 1 -18 -6 -26 -9 -11 -14 -12 -19 -4 -5 7 -10 2 -14 -13 -3 -14 -15
-27 -27 -30 -17 -5 -20 -11 -17 -32 4 -19 -1 -31 -18 -44 -13 -10 -20 -22 -16
-26 4 -4 -2 -5 -13 -3 -18 3 -20 -3 -21 -54 -1 -32 2 -58 7 -58 5 0 9 7 9 15
0 8 5 15 10 15 16 0 11 -19 -10 -37 -11 -10 -20 -22 -20 -27 0 -5 -8 -18 -17
-28 -14 -16 -17 -38 -16 -121 1 -107 26 -365 45 -453 11 -53 15 -235 8 -409
-4 -103 15 -224 46 -292 8 -17 14 -36 14 -42 0 -13 47 -100 66 -122 8 -8 14
-23 14 -32 0 -9 5 -17 10 -17 17 0 11 -46 -8 -63 -27 -25 -223 -105 -384 -158
-81 -26 -203 -70 -270 -97 -68 -27 -156 -61 -196 -76 -107 -41 -138 -85 -162
-232 -7 -41 -77 -277 -150 -506 l-9 -28 1690 0 1689 0 0 303 c0 315 -4 351
-47 447 -24 53 -72 103 -111 118 -15 5 -65 22 -112 37 -47 15 -122 45 -166 67
-54 26 -137 53 -245 80 -420 102 -443 114 -436 221 2 32 8 62 14 65 12 8 14
25 14 107 0 33 7 75 16 94 8 19 16 64 17 105 2 99 -13 322 -23 349 -9 24 -7
211 3 337 14 174 15 196 2 225 -11 25 -10 34 3 55 9 14 21 30 27 35 16 13 0
55 -21 55 -19 0 -20 24 -1 40 19 15 9 39 -21 51 -13 5 -22 13 -18 18 3 5 0 13
-6 16 -5 4 -8 14 -4 22 9 24 -22 63 -50 63 -14 0 -25 5 -25 12 0 15 -96 109
-138 133 -17 11 -35 27 -38 37 -9 29 -51 46 -154 63 -19 4 -37 11 -41 17 -4 7
-8 6 -11 -2 -3 -10 -9 -10 -27 0 -13 6 -21 7 -17 2 8 -14 -65 -13 -82 1 -10 8
-16 7 -22 -2 -4 -7 -9 -9 -11 -4 -6 15 -90 24 -117 13z m68 -15 c11 -14 10
-14 -13 -6 -15 6 -35 8 -44 5 -15 -5 -16 -4 -3 5 21 15 45 14 60 -4z m620
-294 c0 -16 -28 -33 -35 -21 -3 5 0 10 7 10 9 0 9 3 -2 10 -12 8 -11 10 8 10
12 0 22 -4 22 -9z m-400 -67 c0 -14 -3 -14 -15 -4 -8 7 -15 14 -15 16 0 2 7 4
15 4 8 0 15 -7 15 -16z m98 -22 c-22 -3 -28 -8 -27 -25 1 -17 2 -18 6 -4 2 9
8 15 12 12 5 -2 22 0 40 5 24 7 31 6 31 -5 0 -8 18 -31 40 -51 22 -21 43 -48
46 -60 3 -12 12 -25 20 -28 7 -3 11 -12 8 -21 -4 -9 1 -17 12 -22 40 -14 52
-39 63 -134 13 -105 19 -129 31 -129 4 0 10 -12 13 -27 3 -16 10 -46 15 -68
40 -166 38 -551 -4 -592 -7 -8 -18 -32 -24 -54 -6 -23 -14 -38 -17 -35 -4 4
-13 -8 -20 -25 -10 -24 -18 -30 -33 -26 -13 3 -21 -1 -26 -15 -3 -12 -9 -16
-13 -10 -4 6 -11 5 -19 -4 -7 -8 -10 -14 -6 -14 3 0 1 -6 -5 -14 -14 -17 -54
-14 -76 4 -9 7 -15 9 -13 4 4 -15 -20 -74 -31 -74 -5 0 -10 -8 -10 -17 -1 -39
-5 -52 -12 -47 -5 2 -17 -3 -29 -13 -11 -10 -22 -16 -23 -14 -1 2 -12 -1 -24
-7 -13 -7 -24 -8 -28 -3 -3 6 -15 8 -26 6 -12 -2 -33 2 -48 9 -14 7 -34 12
-43 10 -39 -8 -43 -10 -56 -18 -19 -11 -62 -15 -62 -5 0 5 -15 6 -34 3 -27 -4
-40 0 -59 18 -13 13 -33 30 -44 38 -55 41 -84 71 -78 80 3 5 1 10 -5 10 -7 0
-10 6 -7 14 3 8 1 17 -6 20 -8 3 -6 8 6 16 9 6 17 17 17 24 0 8 7 19 15 26 8
7 15 21 15 31 0 22 1 23 34 8 13 -6 27 -22 30 -34 3 -12 18 -30 32 -40 21 -13
24 -19 13 -26 -11 -7 -11 -9 3 -9 10 0 26 -10 37 -21 12 -13 26 -19 35 -16 22
9 20 -10 -1 -22 -11 -6 -13 -11 -5 -11 7 0 24 7 37 16 25 16 25 16 25 -12 1
-29 1 -29 13 -6 7 12 16 19 20 16 4 -4 7 1 7 10 0 13 6 17 23 14 14 -2 30 5
44 19 19 19 19 23 6 23 -15 0 -15 1 0 13 14 10 2 12 -70 12 -74 0 -93 4 -118
21 -16 12 -40 25 -52 28 -32 10 -29 33 5 40 70 13 120 19 150 17 40 -2 42 14
2 28 -23 8 -30 7 -30 -3 0 -20 -101 -10 -117 11 -11 14 -13 14 -14 2 0 -9 -2
-10 -5 -2 -3 7 -13 9 -22 5 -15 -5 -15 -4 -2 9 8 8 45 24 83 34 37 11 67 23
67 26 0 14 -30 30 -41 23 -7 -4 -10 -2 -7 7 3 8 20 16 39 20 19 3 43 10 53 16
19 10 18 11 -3 23 -12 6 -29 9 -36 6 -8 -3 -25 4 -38 15 -25 19 -26 19 -74 -2
l-48 -20 -23 27 -23 27 3 -49 c3 -44 6 -49 28 -52 47 -5 70 -12 70 -22 0 -6
-3 -9 -7 -9 -5 1 -11 0 -15 -1 -5 -1 -11 -3 -15 -4 -25 -6 -109 -52 -116 -63
-4 -7 -14 -13 -21 -13 -18 0 -33 -44 -35 -105 -2 -45 -22 -82 -29 -52 -1 7
-12 19 -24 26 -18 11 -20 11 -15 -3 4 -10 1 -16 -8 -16 -9 0 -15 9 -15 23 0
24 -39 67 -41 44 0 -9 -2 -9 -5 0 -3 7 -11 10 -19 7 -9 -4 -15 6 -20 28 -11
57 -16 68 -26 63 -5 -4 -10 2 -10 12 -1 10 -3 27 -5 38 -1 11 -5 76 -9 145 -3
69 -7 154 -9 189 -4 68 1 101 15 101 5 0 10 -8 10 -17 1 -17 2 -17 6 0 8 29
20 19 15 -13 -3 -19 0 -30 8 -30 7 0 10 -6 7 -14 -4 -10 4 -14 31 -14 20 -1
55 -8 77 -18 53 -23 151 -23 190 -2 l30 17 -73 -1 c-40 0 -76 3 -79 6 -4 3 3
7 15 7 12 1 25 2 30 4 50 13 62 18 62 24 1 23 18 32 43 20 15 -7 24 -15 22
-19 -3 -5 2 -10 10 -14 19 -7 28 9 20 34 -7 21 -64 51 -94 49 -12 0 -11 -2 4
-9 19 -8 19 -9 -2 -9 -12 -1 -25 4 -28 9 -4 6 -21 8 -38 5 -18 -3 -55 -7 -83
-9 -47 -3 -50 -2 -47 18 7 31 50 59 103 64 57 5 127 -27 183 -85 31 -32 39
-35 47 -23 6 8 8 24 5 35 -2 11 -5 36 -5 56 0 33 -4 38 -53 62 -43 22 -68 28
-137 29 -47 1 -87 5 -90 9 -19 25 -112 -75 -125 -133 -7 -28 -28 -37 -40 -18
-5 8 -11 7 -21 -1 -15 -13 -17 -9 -8 15 3 9 11 13 17 9 6 -3 7 -1 3 6 -4 6
-12 9 -17 5 -10 -6 -4 54 12 116 5 19 9 44 8 55 l0 20 -9 -20 c-5 -13 -9 5
-11 58 -4 70 -1 83 20 116 13 21 37 43 53 50 15 7 28 17 28 22 0 10 65 79 75
79 3 0 4 -4 1 -8 -2 -4 5 -8 17 -9 12 0 16 1 9 4 -10 4 -10 8 -1 19 13 16 33
19 24 4 -3 -5 -1 -10 4 -10 6 0 11 5 11 10 0 15 28 12 37 -4 4 -7 19 -16 33
-20 25 -7 25 -7 -3 11 -28 18 -31 33 -7 41 7 3 10 0 6 -7 -8 -12 11 -6 54 16
30 15 43 17 35 3 -3 -5 0 -10 7 -10 7 0 22 -13 32 -29 17 -25 23 -28 47 -19
14 5 44 27 65 48 22 22 45 37 53 35 7 -3 20 0 27 6 8 6 32 13 55 14 32 3 39 0
35 -11 -6 -16 -4 -17 18 -8 9 3 16 10 16 16 0 5 -4 6 -10 3 -5 -3 -10 3 -10
14 0 27 16 30 69 12 42 -14 43 -16 19 -19z m-363 -1042 c3 -5 1 -10 -4 -10 -6
0 -11 5 -11 10 0 6 2 10 4 10 3 0 8 -4 11 -10z m651 -672 c-3 -7 -12 -55 -22
-106 -16 -91 -18 -95 -58 -124 -146 -107 -340 -150 -522 -117 -77 14 -86 24
-38 46 21 10 41 21 42 26 2 4 19 7 38 7 28 0 233 89 254 110 3 3 21 14 40 24
19 10 44 27 55 37 11 9 47 32 79 50 45 24 58 28 53 15 -4 -10 -3 -15 3 -11 6
3 10 12 10 19 0 7 15 18 33 24 17 5 33 10 34 11 1 1 1 -5 -1 -11z"/>
<path d="M1665 2680 c-3 -5 -2 -10 4 -10 5 0 13 5 16 10 3 6 2 10 -4 10 -5 0
-13 -4 -16 -10z"/>
<path d="M2075 2322 c-3 -3 -33 -4 -67 -3 -58 1 -65 -1 -92 -29 -19 -21 -26
-36 -21 -48 7 -15 8 -15 15 3 l7 20 5 -20 c5 -17 6 -16 7 5 1 14 9 34 18 45
14 18 15 18 9 2 -3 -11 -9 -30 -13 -45 -5 -22 -4 -24 13 -18 10 5 51 13 90 19
82 12 109 5 182 -51 24 -18 46 -31 48 -29 14 13 -49 108 -90 137 -20 14 -100
23 -111 12z"/>
<path d="M1953 2209 c-32 -20 -41 -38 -26 -53 4 -4 6 -22 5 -39 -3 -29 2 -35
36 -55 31 -17 55 -22 108 -21 38 0 78 4 89 8 13 5 -11 9 -62 9 -88 0 -123 7
-123 23 0 6 5 7 11 3 7 -4 9 0 5 14 -9 28 10 37 24 12 10 -19 17 -20 68 -15
31 4 81 6 110 5 28 0 52 3 52 8 0 31 -170 79 -242 68 -23 -4 -39 -2 -44 6 -5
7 -3 8 5 4 7 -5 18 0 26 10 30 39 9 46 -42 13z m182 -89 c3 -5 4 -10 1 -10 -2
0 -12 -3 -20 -6 -12 -5 -15 -2 -10 10 7 18 20 21 29 6z"/>
<path d="M1866 1817 c-18 -13 -16 -15 20 -21 21 -4 44 -12 51 -18 8 -6 19 -5
34 3 22 11 22 12 4 25 -10 8 -29 14 -41 14 -12 0 -28 2 -36 5 -7 3 -22 -1 -32
-8z"/>
<path d="M1901 1731 c-8 -5 -20 -7 -28 -4 -14 6 -43 -14 -43 -29 0 -5 18 -8
41 -7 25 2 43 -2 48 -10 7 -11 12 -10 30 1 18 11 23 11 31 -2 5 -8 12 -11 16
-7 4 4 13 2 20 -4 10 -8 13 -6 11 10 -1 12 -10 24 -21 27 -11 4 -26 13 -34 20
-18 19 -31 18 -39 -3 -6 -15 -7 -15 -12 0 -4 11 -11 13 -20 8z"/>
<path d="M2043 1658 c2 -37 -14 -46 -39 -21 -15 15 -17 16 -12 1 9 -21 -2 -31
-19 -17 -9 9 -13 8 -13 0 0 -6 -18 -11 -45 -11 -111 0 -8 -27 129 -34 20 -1
32 -8 39 -23 6 -13 14 -23 18 -23 4 0 10 -13 14 -28 3 -15 13 -32 23 -39 16
-9 18 -5 19 54 1 73 -13 109 -54 139 -51 37 -63 37 -60 2z"/>
<path d="M1310 1610 c0 -5 5 -10 10 -10 6 0 10 5 10 10 0 6 -4 10 -10 10 -5 0
-10 -4 -10 -10z"/>
<path d="M1527 3123 c-4 -3 -7 -11 -7 -17 0 -6 5 -5 12 2 6 6 9 14 7 17 -3 3
-9 2 -12 -2z"/>
<path d="M2466 2112 c-3 -5 6 -12 20 -15 15 -3 23 0 21 7 -5 14 -33 20 -41 8z"/>
</g>
</svg>
