<?xml version="1.0" standalone="no"?>
<!DOCTYPE svg PUBLIC "-//W3C//DTD SVG 20010904//EN"
 "http://www.w3.org/TR/2001/REC-SVG-20010904/DTD/svg10.dtd">
<svg version="1.0" xmlns="http://www.w3.org/2000/svg"
 width="256.000000pt" height="256.000000pt" viewBox="0 0 256.000000 256.000000"
 preserveAspectRatio="xMidYMid meet">

<g transform="translate(0.000000,256.000000) scale(0.100000,-0.100000)"
fill="#000000" stroke="none">
<path d="M1085 2545 c-191 -30 -340 -88 -518 -201 -90 -57 -286 -254 -348
-349 -215 -328 -273 -714 -164 -1089 60 -208 213 -446 375 -585 344 -296 788
-392 1223 -266 121 35 242 92 230 107 -124 156 -461 625 -660 919 l-258 381
-5 -374 c-3 -205 -9 -379 -13 -385 -11 -17 -119 -17 -135 -1 -17 17 -17 1019
0 1036 7 7 39 12 75 12 l62 0 233 -352 c128 -194 359 -543 514 -776 l281 -423
74 60 c211 170 331 327 418 546 108 270 119 586 31 866 -143 456 -563 810
-1043 878 -100 14 -269 12 -372 -4z m649 -777 c14 -20 16 -81 16 -473 l0 -450
-80 120 -80 120 0 337 c0 383 -3 368 80 368 39 0 52 -4 64 -22z"/>
</g>
</svg>
