<?xml version="1.0" standalone="no"?>
<!DOCTYPE svg PUBLIC "-//W3C//DTD SVG 20010904//EN"
 "http://www.w3.org/TR/2001/REC-SVG-20010904/DTD/svg10.dtd">
<svg version="1.0" xmlns="http://www.w3.org/2000/svg"
 width="512.000000pt" height="512.000000pt" viewBox="0 0 512.000000 512.000000"
 preserveAspectRatio="xMidYMid meet">

<g transform="translate(0.000000,512.000000) scale(0.100000,-0.100000)"
fill="#000000" stroke="none">
<path d="M835 2570 c4 -6 88 -10 220 -10 132 0 216 4 220 10 4 7 -72 10 -220
10 -148 0 -224 -3 -220 -10z"/>
<path d="M1515 2570 c-4 -6 47 -10 144 -10 94 0 151 4 151 10 0 6 -55 10 -144
10 -86 0 -147 -4 -151 -10z"/>
<path d="M2120 2570 c0 -6 55 -10 145 -10 90 0 145 4 145 10 0 6 -55 10 -145
10 -90 0 -145 -4 -145 -10z"/>
<path d="M2710 2570 c0 -6 55 -10 145 -10 90 0 145 4 145 10 0 6 -55 10 -145
10 -90 0 -145 -4 -145 -10z"/>
<path d="M3310 2570 c0 -6 55 -10 145 -10 90 0 145 4 145 10 0 6 -55 10 -145
10 -90 0 -145 -4 -145 -10z"/>
<path d="M3845 2570 c4 -6 88 -10 220 -10 132 0 216 4 220 10 4 7 -72 10 -220
10 -148 0 -224 -3 -220 -10z"/>
<path d="M764 2472 c-489 -542 -606 -1013 -321 -1294 187 -184 561 -239 1035
-152 75 13 154 29 176 35 21 6 40 8 43 6 2 -3 29 -78 59 -167 61 -184 156
-389 239 -517 73 -112 228 -267 310 -309 181 -94 351 -92 523 7 75 43 198 164
272 267 87 121 199 355 264 550 30 90 56 166 59 168 2 3 44 -4 93 -15 342 -76
640 -86 861 -31 237 60 401 215 444 417 15 77 6 228 -21 323 -56 198 -205 442
-417 681 l-88 99 -230 0 c-223 -1 -231 -1 -256 -23 -89 -76 -192 -157 -200
-157 -5 0 -9 41 -9 90 l0 90 -145 0 -145 0 0 -144 c0 -78 -3 -171 -6 -204 l-7
-62 -111 -72 c-134 -87 -384 -230 -523 -301 l-103 -52 -102 52 c-140 71 -390
214 -524 301 l-111 72 -7 62 c-3 33 -6 126 -6 204 l0 144 -145 0 -145 0 0 -90
c0 -49 -3 -90 -7 -90 -9 0 -95 66 -168 128 l-60 52 -230 0 -230 0 -61 -68z
m437 -238 c75 -62 256 -203 316 -245 19 -13 24 -34 43 -190 12 -96 33 -234 46
-308 14 -73 23 -135 22 -136 -7 -5 -271 -55 -343 -65 -116 -15 -357 -13 -437
4 -283 61 -340 241 -177 560 68 133 160 260 307 423 l74 83 32 -28 c18 -15 71
-59 117 -98z m3052 -86 c179 -225 272 -409 284 -565 12 -155 -72 -247 -265
-289 -80 -17 -321 -19 -437 -4 -72 10 -336 60 -343 65 -1 1 8 63 22 136 13 74
34 212 46 308 19 156 24 177 43 190 98 68 317 243 431 343 l31 28 57 -60 c31
-32 90 -101 131 -152z m-2185 -510 c78 -45 139 -85 135 -89 -7 -6 -276 -109
-286 -109 -6 0 -12 32 -37 180 -26 151 -27 146 13 121 17 -12 96 -58 175 -103z
m1182 40 c-14 -92 -41 -232 -45 -236 -4 -4 -278 98 -288 108 -4 4 45 37 110
73 65 36 143 82 173 101 30 19 56 33 58 31 2 -2 -1 -37 -8 -77z m-550 -356
c74 -32 200 -82 280 -111 80 -29 148 -56 152 -59 9 -10 -75 -257 -131 -383
-131 -293 -296 -469 -441 -469 -184 0 -388 272 -534 712 -24 73 -42 136 -40
140 2 3 35 16 72 29 84 27 335 127 422 167 36 17 70 31 75 31 6 1 71 -25 145
-57z"/>
<path d="M2123 2489 c15 -127 117 -263 241 -324 129 -63 263 -63 392 0 124 61
226 197 241 324 l6 51 -147 0 c-140 0 -146 -1 -146 -20 0 -12 -18 -40 -39 -63
-39 -42 -40 -42 -111 -42 -71 0 -72 0 -111 42 -21 23 -39 51 -39 63 0 19 -6
20 -146 20 l-147 0 6 -51z"/>
</g>
</svg>
